<svg width="70" height="24" viewBox="0 0 70 24" fill="none" xmlns="http://www.w3.org/2000/svg">
<g clip-path="url(#clip0_172_6585)">
<rect width="69.8182" height="24" fill="white"/>
<path d="M19.6589 0L15.7264 4.00087L11.7957 8L15.7264 12.0009L19.6589 8L23.5897 4.00087L19.6589 0Z" fill="#0037FF"/>
<path d="M7.86324 12.001L3.93247 16.0001L0 20.001L3.93247 24.0001L7.86324 20.001L11.7957 16.0001L7.86324 12.001Z" fill="black"/>
<path d="M19.6589 16.0001L15.7264 12.001L11.7957 16.0001L15.7264 20.001L19.6589 24.0001L23.5897 20.001L19.6589 16.0001Z" fill="#0037FF"/>
<path d="M7.86324 4.00087L3.93247 0L0 4.00087L3.93247 8L7.86324 12.0009L11.7957 8L7.86324 4.00087Z" fill="black"/>
<path d="M38.8678 6H30.2212V8.26286H33.3776V18H35.6946V8.26286H38.8678V6Z" fill="black"/>
<path d="M46.6085 18H49.1102L46.5078 13.4743C47.8509 12.84 48.7744 11.4857 48.7744 9.97714C48.7744 7.78286 47.0283 6 44.8624 6H40.1613V18H42.4783V13.8343H44.2412L46.6085 18ZM42.4783 8.21143H44.8624C45.7355 8.21143 46.4574 8.98286 46.4574 9.97714C46.4574 10.9714 45.7355 11.76 44.8624 11.76H42.4783V8.21143Z" fill="black"/>
<path d="M52.7914 15.7371V13.0457H57.2407V10.8171H52.7914V8.26286H57.6604V6H50.4745V18H57.7444V15.7371H52.7914Z" fill="black"/>
</g>
<defs>
<clipPath id="clip0_172_6585">
<rect width="69.8182" height="24" fill="white"/>
</clipPath>
</defs>
</svg>
